<svg width="149" height="53" viewBox="0 0 149 53" fill="none" xmlns="http://www.w3.org/2000/svg">
<path d="M71.7139 23.4681C73.2842 23.4681 74.6066 24.3917 74.6066 26.0014H68.711C68.9865 24.3653 70.1711 23.4681 71.7139 23.4681ZM79.0696 29.9069H74.0556C73.6699 30.6986 72.9261 31.3319 71.6037 31.3319C70.0884 31.3319 68.8487 30.4347 68.6834 28.5083H79.3451C79.4002 28.0597 79.4277 27.6111 79.4277 27.1889C79.4277 22.7028 76.2595 19.8528 71.769 19.8528C67.1957 19.8528 64 22.7556 64 27.4264C64 32.0972 67.2508 35 71.769 35C75.5984 35 78.3258 32.7833 79.0696 29.9069Z" fill="white"/>
<path d="M93.1257 34.7889H98.8835L91.1146 25.3417L98.608 16.2639H93.0706L86.624 24.3917V16.2639H81.913V34.7889H86.624V26.6083L93.1257 34.7889Z" fill="white"/>
<path d="M101.122 34.7889H105.833V16.2639H101.122V34.7889Z" fill="white"/>
<path d="M121.837 16.2639V27.7431L113.958 16.2639H109.247V34.7889H113.958V23.3625L121.837 34.7889H126.548V16.2639H121.837Z" fill="white"/>
<path d="M149 25.4736C149 19.9056 144.62 16 139.11 16C133.627 16 129.164 19.9056 129.164 25.4736C129.164 31.0417 133.627 34.9736 139.11 34.9736C144.592 34.9736 149 31.0417 149 25.4736ZM133.986 25.4736C133.986 22.175 135.969 20.0903 139.11 20.0903C142.195 20.0903 144.206 22.175 144.206 25.4736C144.206 28.7194 142.195 30.8569 139.11 30.8569C135.969 30.8569 133.986 28.7194 133.986 25.4736Z" fill="white"/>
<path fill-rule="evenodd" clip-rule="evenodd" d="M26.5 53C41.1355 53 53 41.1355 53 26.5C53 11.8645 41.1355 0 26.5 0C11.8645 0 0 11.8645 0 26.5C0 41.1355 11.8645 53 26.5 53ZM36.7446 14.2932H40.2414C40.7924 14.2932 41.2692 14.0971 41.6719 13.7051C42.0745 13.313 42.2758 12.8362 42.2758 12.2746C42.2758 11.713 42.0745 11.2309 41.6719 10.8282C41.2692 10.4255 40.7924 10.2242 40.2414 10.2242H26C23.796 10.2242 21.6874 10.6534 19.6741 11.5117C17.6608 12.3699 15.9283 13.5249 14.4766 14.9766C13.025 16.4283 11.87 18.1608 11.0117 20.1741C10.1534 22.1873 9.72424 24.296 9.72424 26.5C9.72424 28.704 10.1534 30.8127 11.0117 32.826C11.87 34.8392 13.025 36.5717 14.4766 38.0234C15.9283 39.4751 17.6608 40.6301 19.6741 41.4884C21.6874 42.3467 23.796 42.7758 26 42.7758C28.2041 42.7758 30.3127 42.3467 32.326 41.4884C34.3393 40.6301 36.0718 39.4751 37.5234 38.0234C38.9751 36.5717 40.1301 34.8392 40.9884 32.826C41.8467 30.8127 42.2758 28.704 42.2758 26.5C42.2758 24.1053 41.7831 21.8536 40.7977 19.7449C39.8122 17.6363 38.4612 15.819 36.7446 14.2932ZM12.9508 23.6231C13.7455 22.8284 14.7045 22.4311 15.8277 22.4311C16.9509 22.4311 17.9098 22.8284 18.7045 23.6231C19.4993 24.4179 19.8966 25.3768 19.8966 26.5C19.8966 27.6232 19.4993 28.5822 18.7045 29.3769C17.9098 30.1716 16.9509 30.569 15.8277 30.569C14.7045 30.569 13.7455 30.1716 12.9508 29.3769C12.1561 28.5822 11.7587 27.6232 11.7587 26.5C11.7587 25.3768 12.1561 24.4179 12.9508 23.6231ZM23.1232 13.4508C23.9179 12.656 24.8768 12.2587 26 12.2587C27.1232 12.2587 28.0822 12.656 28.8769 13.4508C29.6716 14.2455 30.069 15.2044 30.069 16.3276C30.069 17.4508 29.6716 18.4098 28.8769 19.2045C28.0822 19.9992 27.1232 20.3966 26 20.3966C24.8768 20.3966 23.9179 19.9992 23.1232 19.2045C22.3285 18.4098 21.9311 17.4508 21.9311 16.3276C21.9311 15.2044 22.3285 14.2455 23.1232 13.4508ZM24.5537 27.9464C24.1616 27.5543 23.9656 27.0722 23.9656 26.5C23.9656 25.9278 24.1616 25.4457 24.5537 25.0536C24.9457 24.6616 25.4225 24.4655 25.9841 24.4655C26.5457 24.4655 27.0279 24.6616 27.4305 25.0536C27.8332 25.4457 28.0345 25.9278 28.0345 26.5C28.0345 27.0722 27.8332 27.5543 27.4305 27.9464C27.0279 28.3385 26.5457 28.5345 25.9841 28.5345C25.4225 28.5345 24.9457 28.3385 24.5537 27.9464ZM23.1232 33.7955C23.9179 33.0008 24.8768 32.6034 26 32.6034C27.1232 32.6034 28.0822 33.0008 28.8769 33.7955C29.6716 34.5902 30.069 35.5492 30.069 36.6724C30.069 37.7956 29.6716 38.7545 28.8769 39.5493C28.0822 40.344 27.1232 40.7413 26 40.7413C24.8768 40.7413 23.9179 40.344 23.1232 39.5493C22.3285 38.7545 21.9311 37.7956 21.9311 36.6724C21.9311 35.5492 22.3285 34.5902 23.1232 33.7955ZM33.2955 29.3769C32.5008 28.5822 32.1035 27.6232 32.1035 26.5C32.1035 25.3768 32.5008 24.4179 33.2955 23.6231C34.0903 22.8284 35.0492 22.4311 36.1724 22.4311C37.2956 22.4311 38.2546 22.8284 39.0493 23.6231C39.844 24.4179 40.2414 25.3768 40.2414 26.5C40.2414 27.6232 39.844 28.5822 39.0493 29.3769C38.2546 30.1716 37.2956 30.569 36.1724 30.569C35.0492 30.569 34.0903 30.1716 33.2955 29.3769Z" fill="url(#paint0_linear_26_1119)"/>
<defs>
<linearGradient id="paint0_linear_26_1119" x1="9.52656" y1="6.79107" x2="42.5961" y2="46.5352" gradientUnits="userSpaceOnUse">
<stop stop-color="#FFC834"/>
<stop offset="1" stop-color="#E29534"/>
</linearGradient>
</defs>
</svg>
